<svg width="240" height="71" version="1.1" xmlns="http://www.w3.org/2000/svg">
    <defs id="SvgjsDefs13005">
        <linearGradient id="SvgjsLinearGradient13009">
            <stop id="SvgjsStop13010" stop-color="#b88746" offset="0"></stop>
            <stop id="SvgjsStop13011" stop-color="#fdf5a6" offset="1"></stop>
        </linearGradient>
    </defs>
    <g id="main_text" rel="mainfill" name="main_text" feature="main_text" xmlns:name="mainText_mainfill"
       groupname="main_text" fill="#eeeff1"
       transform="translate(76.900328464012, -2.3296812610979067) scale(2.3329681261097908)">
        <path d="M5.44 13.92 c2.2 0 3.52 1.48 3.52 3.62 l0 2.98 c0 2.12 -1.32 3.58 -3.52 3.58 l-1.02 0 c-2.2 0 -3.52 -1.46 -3.52 -3.58 l0 -2.98 c0 -2.14 1.32 -3.62 3.52 -3.62 l1.02 0 z M6.74 20.759999999999998 l0 -3.5 c0 -0.96 -0.52 -1.34 -1.3 -1.34 l-1.02 0 c-0.78 0 -1.3 0.38 -1.3 1.34 l0 3.5 c0 0.92 0.52 1.34 1.3 1.34 l1.02 0 c0.78 0 1.3 -0.42 1.3 -1.34 z M23.457965277777777 14 c0.2 0 0.32 0.12 0.24 0.34 l-2.82 9.26 c-0.08 0.28 -0.24 0.4 -0.46 0.4 l-1.28 0 c-0.24 0 -0.38 -0.12 -0.48 -0.4 c-0.64 -1.98 -1.32 -4.16 -1.96 -6.36 c-0.62 2.2 -1.36 4.38 -2 6.36 c-0.08 0.28 -0.24 0.4 -0.46 0.4 l-1.28 0 c-0.24 0 -0.38 -0.12 -0.48 -0.4 l-2.78 -9.26 c-0.08 -0.22 0.04 -0.34 0.24 -0.34 l1.62 0 c0.2 0 0.3 0.12 0.36 0.34 c0.56 2.18 1.04 4.4 1.72 6.94 c0.7 -2.54 1.32 -4.76 1.88 -6.94 c0.06 -0.2 0.16 -0.34 0.36 -0.34 l1.56 0 c0.24 0 0.36 0.14 0.4 0.34 c0.56 2.18 1.2 4.4 1.88 6.94 c0.68 -2.54 1.2 -4.76 1.76 -6.94 c0.06 -0.22 0.16 -0.34 0.36 -0.34 l1.62 0 z M24.73593055555555 10.3 c0 -0.2 0.1 -0.3 0.3 -0.3 l1.62 0 c0.2 0 0.3 0.1 0.3 0.3 l0 13.4 c0 0.2 -0.1 0.3 -0.3 0.3 l-1.62 0 c-0.2 0 -0.3 -0.1 -0.3 -0.3 l0 -13.4 z M34.25389583333333 17.42 c-0.24 0 -0.38 -0.14 -0.4 -0.38 c-0.1 -0.82 -0.5 -1.1 -1.12 -1.1 l-0.98 0 c-0.78 0 -1.3 0.38 -1.3 1.34 l0 3.48 c0 0.92 0.52 1.34 1.3 1.34 l0.98 0 c0.92 0 1.2 -0.3 1.6 -0.82 c0.14 -0.16 0.34 -0.14 0.54 0 l0.96 0.68 c0.18 0.14 0.18 0.26 0.06 0.42 c-0.72 0.88 -1.34 1.72 -3.16 1.72 l-0.98 0 c-2.2 0 -3.58 -1.64 -3.58 -3.76 l0 -2.78 c0 -2.14 1.38 -3.62 3.58 -3.62 l0.98 0 c1.84 0 3.16 1.2 3.36 3.06 c0.02 0.28 -0.12 0.42 -0.38 0.42 l-1.46 0 z M45.07186111111111 23.82 c0.02 0.08 0.04 0.18 -0.06 0.18 l-1.84 0 c-0.22 0 -0.36 -0.2 -0.36 -0.48 l0 -0.68 c-0.46 0.7 -1.12 1.26 -2.14 1.26 l-0.62 0 c-1.86 0 -3.22 -1.12 -3.22 -3.12 s1.1 -2.9 3.18 -2.9 l2.8 0 l0 -0.82 c0 -1.06 -0.38 -1.34 -1.42 -1.34 l-0.54 0 c-1.02 0 -1.78 0.26 -2.2 0.44 c-0.32 0.12 -0.54 0.12 -0.66 -0.16 l-0.42 -0.98 c-0.08 -0.2 -0.1 -0.36 0.1 -0.48 c0.84 -0.52 2.08 -0.82 3.18 -0.82 l0.54 0 c2.48 0 3.64 1.1 3.64 3.44 l0 6.16 c0 0.1 0.02 0.22 0.04 0.3 z M41.11186111111111 22.1 c1.08 0 1.46 -0.44 1.7 -0.96 l0 -1.32 l-2.76 0 c-0.6 0 -1.02 0.26 -1.02 1.14 c0 0.84 0.42 1.14 1.02 1.14 l1.06 0 z M57.309826388888894 13.92 c2.22 0 2.98 1.42 2.98 3.52 l0 6.26 c0 0.2 -0.1 0.3 -0.3 0.3 l-1.62 0 c-0.2 0 -0.3 -0.1 -0.3 -0.3 l0 -6.48 c0 -0.92 -0.46 -1.3 -1.32 -1.3 l-0.26 0 c-1.04 0 -1.72 0.5 -1.98 0.9 l0 6.88 c0 0.2 -0.1 0.3 -0.3 0.3 l-1.62 0 c-0.2 0 -0.3 -0.1 -0.3 -0.3 l0 -6.48 c0 -0.92 -0.46 -1.3 -1.32 -1.3 l-0.26 0 c-1.04 0 -1.74 0.5 -1.98 0.9 l0 6.88 c0 0.2 -0.1 0.3 -0.3 0.3 l-1.62 0 c-0.2 0 -0.3 -0.1 -0.3 -0.3 l0 -9.4 c0 -0.2 0.1 -0.3 0.3 -0.3 l1.62 0 c0.2 0 0.3 0.1 0.3 0.3 l0 0.96 c0.42 -0.64 1.24 -1.34 2.66 -1.34 l0.14 0 c1.46 0 2.28 0.6 2.68 1.62 l0.3 -0.28 c0.42 -0.64 1.24 -1.34 2.66 -1.34 l0.14 0 z M66.54779166666667 13.92 c2.18 0 3.5 1.48 3.5 3.62 l0 2.98 c0 2.12 -1.32 3.58 -3.5 3.58 l-0.52 0 c-1.02 0 -1.64 -0.46 -2 -1.08 l0 4.68 c0 0.2 -0.14 0.3 -0.28 0.3 l-1.64 0 c-0.2 0 -0.3 -0.1 -0.3 -0.3 l0 -13.4 c0 -0.2 0.1 -0.3 0.3 -0.3 l1.64 0 c0.14 0 0.28 0.1 0.28 0.3 l0 0.62 c0.36 -0.58 0.98 -1 2 -1 l0.52 0 z M67.82779166666667 20.759999999999998 l0 -3.5 c0 -0.96 -0.52 -1.34 -1.3 -1.34 l-1.2 0 c-0.78 0 -1.3 0.38 -1.3 1.34 l0 3.5 c0 0.92 0.52 1.34 1.3 1.34 l1.2 0 c0.78 0 1.3 -0.42 1.3 -1.34 z"></path>
    </g>
    <g id="slogan_text" rel="mainfill" name="slogan_text" feature="slogan_text" xmlns:name="sloganText_mainfill"
       groupname="slogan_text" fill="#eeeff1" transform="translate(78.625, 52.605000257492065) scale(0.75)">
        <path d="M16.46 13.58 l1.62 0 l-3.98 10.42 l-1.42 0 l-3.38 -8.54 l-3.38 8.54 l-1.42 0 l-4 -10.42 l1.64 0 l3.1 8.28 l3.32 -8.28 l1.48 0 l3.32 8.28 z M21.360000000000003 9.86 l0 1.46 l-1.64 0 l0 -1.46 l1.64 0 z M21.360000000000003 13.6 l0 10.4 l-1.64 0 l0 -10.4 l1.64 0 z M28.7 16.12 c-0.4 -0.84 -1.06 -1.36 -2.02 -1.36 c-1 0 -1.68 0.6 -1.68 1.4 c0 0.72 0.38 1.24 1.42 1.62 l1.04 0.36 c1.74 0.62 3.02 1.26 3.02 3.08 c0 1.98 -1.92 3 -3.7 3 c-1.8 0 -3.4 -1.04 -3.78 -2.78 l1.32 -0.4 c0.32 1.14 1.26 1.84 2.46 1.84 c1.04 0 2.08 -0.6 2.08 -1.64 c0 -0.9 -0.62 -1.38 -1.7 -1.76 l-1.16 -0.42 c-1.82 -0.64 -2.6 -1.66 -2.6 -2.9 c0 -1.62 1.44 -2.74 3.24 -2.74 c1.68 0 2.86 0.92 3.42 2.3 z M37.099999999999994 13.42 c2.36 0 5.52 1.8 5.1 5.98 l-8.78 0 c0.26 2.28 2.04 3.4 3.92 3.4 c1.44 0 2.36 -0.4 3.14 -1.16 l0.96 0.88 c-0.94 1.12 -2.3 1.68 -4.12 1.68 c-2.68 0 -5.54 -1.8 -5.54 -5.38 c0 -3.6 2.96 -5.4 5.32 -5.4 z M37.099999999999994 14.84 c-1.54 0 -3.38 1.1 -3.68 3.34 l7.34 0 c-0.2 -2.24 -2.1 -3.34 -3.66 -3.34 z  M55.14 16.12 c-0.4 -0.84 -1.06 -1.36 -2.02 -1.36 c-1 0 -1.68 0.6 -1.68 1.4 c0 0.72 0.38 1.24 1.42 1.62 l1.04 0.36 c1.74 0.62 3.02 1.26 3.02 3.08 c0 1.98 -1.92 3 -3.7 3 c-1.8 0 -3.4 -1.04 -3.78 -2.78 l1.32 -0.4 c0.32 1.14 1.26 1.84 2.46 1.84 c1.04 0 2.08 -0.6 2.08 -1.64 c0 -0.9 -0.62 -1.38 -1.7 -1.76 l-1.16 -0.42 c-1.82 -0.64 -2.6 -1.66 -2.6 -2.9 c0 -1.62 1.44 -2.74 3.24 -2.74 c1.68 0 2.86 0.92 3.42 2.3 z M63.53999999999999 13.42 c2.36 0 5.34 1.8 5.34 5.4 s-2.98 5.38 -5.34 5.38 s-5.32 -1.78 -5.32 -5.38 s2.96 -5.4 5.32 -5.4 z M63.53999999999999 14.88 c-1.68 0 -3.72 1.3 -3.72 3.94 c0 2.62 2.04 3.92 3.72 3.92 c1.7 0 3.74 -1.3 3.74 -3.92 c0 -2.64 -2.04 -3.94 -3.74 -3.94 z M72.36 9.86 l0 14.14 l-1.64 0 l0 -14.14 l1.64 0 z M78.38 24.16 c-2.02 0 -3.98 -1.3 -3.98 -4.52 l0 -6.04 l1.64 0 l0 6 c0 2.18 1.14 3.12 2.68 3.12 c1.86 0 3.14 -1.72 3.4 -2.98 l0 -6.14 l1.64 0 l0 10.4 l-1.64 0 l0 -2.42 c-0.2 0.72 -1.46 2.58 -3.74 2.58 z M90.76 14.98 l-2.2 0 l0 6.7 c0 0.62 0.24 1 0.84 1 c0.52 0 0.9 -0.12 1.34 -0.32 l0 1.4 c-0.44 0.22 -0.96 0.36 -1.78 0.36 c-1.06 0 -2.02 -0.48 -2.02 -2.3 l0 -6.84 l-1.44 0 l0 -1.38 l1.44 0 l0 -2.44 l1.62 0 l0 2.44 l2.2 0 l0 1.38 z M94.24000000000001 9.86 l0 1.46 l-1.64 0 l0 -1.46 l1.64 0 z M94.24000000000001 13.6 l0 10.4 l-1.64 0 l0 -10.4 l1.64 0 z M101.4 13.42 c2.36 0 5.34 1.8 5.34 5.4 s-2.98 5.38 -5.34 5.38 s-5.32 -1.78 -5.32 -5.38 s2.96 -5.4 5.32 -5.4 z M101.4 14.88 c-1.68 0 -3.72 1.3 -3.72 3.94 c0 2.62 2.04 3.92 3.72 3.92 c1.7 0 3.74 -1.3 3.74 -3.92 c0 -2.64 -2.04 -3.94 -3.74 -3.94 z M113.96000000000001 13.44 c2.02 0 3.98 1.3 3.98 4.52 l0 6.04 l-1.64 0 l0 -6 c0 -2.18 -1.14 -3.12 -2.68 -3.12 c-1.86 0 -3.14 1.72 -3.4 2.98 l0 6.14 l-1.64 0 l0 -10.4 l1.64 0 l0 2.42 c0.2 -0.72 1.46 -2.58 3.74 -2.58 z M125.04000000000002 16.12 c-0.4 -0.84 -1.06 -1.36 -2.02 -1.36 c-1 0 -1.68 0.6 -1.68 1.4 c0 0.72 0.38 1.24 1.42 1.62 l1.04 0.36 c1.74 0.62 3.02 1.26 3.02 3.08 c0 1.98 -1.92 3 -3.7 3 c-1.8 0 -3.4 -1.04 -3.78 -2.78 l1.32 -0.4 c0.32 1.14 1.26 1.84 2.46 1.84 c1.04 0 2.08 -0.6 2.08 -1.64 c0 -0.9 -0.62 -1.38 -1.7 -1.76 l-1.16 -0.42 c-1.82 -0.64 -2.6 -1.66 -2.6 -2.9 c0 -1.62 1.44 -2.74 3.24 -2.74 c1.68 0 2.86 0.92 3.42 2.3 z"></path>
    </g>
    <g id="SvgjsG13008" rel="mainfill" name="symbol" feature="symbol" xmlns:name="symbol_mainfill"
       fill="url(#SvgjsLinearGradient13009)"
       transform="translate(3.9169883131980896, 3.3905743161837263) scale(0.7569444444444444)">
        <g xmlns="http://www.w3.org/2000/svg" transform="matrix(4.1359097,0,0,4.1359097,-4.5653877,-1124.0446)">
            <g transform="matrix(0.13394336,0,0,0.13394336,-114.11811,327.32332)" style=""
               fill="url(#SvgjsLinearGradient13009)">
                <g transform="translate(-4.3994122e-7,0.12713914)" style="" fill="url(#SvgjsLinearGradient13009)">
                    <g style="" transform="translate(15.980497,-7.9013497)" fill="url(#SvgjsLinearGradient13009)">
                        <path style=""
                              d="M 17.994141 10.052734 L 9.3574219 31.169922 L 25.292969 41.617188 L 10.498047 37.867188 L 15.626953 53.058594 L 28.646484 55.425781 L 20.046875 57.699219 L 30.421875 66.669922 L 38.707031 65.091797 L 29.238281 72.785156 L 50.148438 89.158203 L 71.060547 72.785156 L 61.591797 65.091797 L 69.876953 66.669922 L 80.251953 57.699219 L 71.652344 55.425781 L 84.671875 53.058594 L 89.800781 37.867188 L 75.005859 41.617188 L 90.941406 31.169922 L 82.304688 10.052734 L 56.857422 41.025391 L 63.169922 49.310547 L 59.693359 60.357422 L 50.148438 72.785156 L 40.603516 60.357422 L 37.128906 49.310547 L 43.441406 41.025391 L 17.994141 10.052734 z M 43.984375 45.46875 L 40.175781 50.388672 L 42.617188 53.457031 L 46.103516 53.109375 L 47.15625 56.996094 L 50.148438 61.828125 L 53.142578 56.996094 L 54.195312 53.109375 L 57.681641 53.457031 L 60.123047 50.388672 L 56.314453 45.46875 L 51.21875 46.753906 L 50.148438 55.271484 L 49.080078 46.753906 L 43.984375 45.46875 z "
                              transform="matrix(1.805127,0,0,1.805127,844.24842,-406.92681)"
                              fill="url(#SvgjsLinearGradient13009)" stroke="none"></path>
                    </g>
                </g>
            </g>
        </g>
    </g>
</svg>